<svg xmlns:dc="http://purl.org/dc/elements/1.1/" xmlns:cc="http://creativecommons.org/ns#" xmlns:rdf="http://www.w3.org/1999/02/22-rdf-syntax-ns#" xmlns:svg="http://www.w3.org/2000/svg" xmlns="http://www.w3.org/2000/svg" xmlns:sodipodi="http://sodipodi.sourceforge.net/DTD/sodipodi-0.dtd" xmlns:inkscape="http://www.inkscape.org/namespaces/inkscape" viewBox="0 0 32 40.00000125" version="1.1" x="0px" y="0px"><g transform="translate(0,-1020.3622)"><path style="" d="M 1 3 C 0.448 3 0 3.4859844 0 4.0839844 L 0 27.916016 C 0 28.515016 0.448 29 1 29 L 31 29 C 31.553 29 32 28.515016 32 27.916016 L 32 4.0839844 C 32 3.4849844 31.553 3 31 3 L 1 3 z M 23 4 C 23.553 4 24 4.448 24 5 C 24 5.553 23.553 6 23 6 C 22.447 6 22 5.553 22 5 C 22 4.447 22.447 4 23 4 z M 26 4 C 26.553 4 27 4.448 27 5 C 27 5.553 26.553 6 26 6 C 25.447 6 25 5.553 25 5 C 25 4.447 25.447 4 26 4 z M 29 4 C 29.553 4 30 4.448 30 5 C 30 5.553 29.553 6 29 6 C 28.447 6 28 5.553 28 5 C 28 4.447 28.447 4 29 4 z M 1.9375 7 L 30.0625 7 C 30.5805 7 31.001953 7.392 31.001953 7.875 L 31.001953 27.125 C 31.001953 27.608 30.5805 28 30.0625 28 L 1.9375 28 C 1.4195 28 1 27.608 1 27.125 L 1 7.875 C 1 7.392 1.4195 7 1.9375 7 z M 27.5 10 C 26.67142 10 26 10.6714 26 11.5 C 26 11.872475 26.140598 12.208467 26.365234 12.470703 L 23.716797 17.021484 C 23.645542 17.011102 23.57414 17 23.5 17 C 23.146918 17 22.826525 17.126033 22.570312 17.330078 L 19.96875 15.794922 C 19.987745 15.699586 20 15.60093 20 15.5 C 20 14.6714 19.32858 14 18.5 14 C 17.67142 14 17 14.6714 17 15.5 C 17 15.770992 17.077484 16.020858 17.203125 16.240234 L 14.033203 20.101562 C 13.867075 20.038163 13.688433 20 13.5 20 C 13.036438 20 12.626689 20.214667 12.351562 20.544922 L 9.9902344 19.587891 C 9.9919811 19.558236 10 19.530094 10 19.5 C 10 18.6714 9.32858 18 8.5 18 C 7.67142 18 7 18.6714 7 19.5 C 7 19.779418 7.0799095 20.037771 7.2128906 20.261719 L 3.1152344 25.181641 A 0.50005 0.50005 0 0 0 3.5 26 L 27.509766 26 A 0.50005 0.50005 0 0 0 28.009766 25.5 L 28.007812 12.90625 C 28.585235 12.697587 29 12.149518 29 11.5 C 29 10.6714 28.32858 10 27.5 10 z M 27.007812 13.353516 L 27.009766 25 L 24 25 L 24 19.908203 C 24.58138 19.70165 25 19.152351 25 18.5 C 25 18.109127 24.846397 17.757169 24.601562 17.490234 L 27.007812 13.353516 z M 19.451172 16.650391 L 22.037109 18.177734 C 22.014345 18.281646 22 18.389243 22 18.5 C 22 19.152351 22.41862 19.70165 23 19.908203 L 23 25 L 19 25 L 19 16.908203 C 19.166879 16.848914 19.317453 16.761149 19.451172 16.650391 z M 17.960938 16.896484 C 17.973575 16.901367 17.987199 16.903655 18 16.908203 L 18 25 L 14 25 L 14 22.908203 C 14.58138 22.70165 15 22.152351 15 21.5 C 15 21.225883 14.921312 20.973045 14.792969 20.751953 L 17.960938 16.896484 z M 9.6015625 20.509766 L 12.001953 21.482422 C 12.001882 21.488424 12 21.493981 12 21.5 C 12 22.152351 12.41862 22.70165 13 22.908203 L 13 25 L 9 25 L 9 20.908203 C 9.2330307 20.825412 9.4377785 20.688333 9.6015625 20.509766 z M 7.9804688 20.902344 C 7.9868287 20.904702 7.9935997 20.905929 8 20.908203 L 8 25 L 4.5683594 25 L 7.9804688 20.902344 z " transform="translate(0,1020.3622)" fill="#000000"/></g></svg>